# xmcd
# 
# Track frame offsets:
#     150
#     18792
#     34850
#     57867
#     75427
#     97547
#     114902
#     145862
#     166200
#     196222
# 
# Disc length: 3193
# 
# Revision: 1
# Processed by: cddbd v1.5.2PL0 Copyright (c) Steve Scherf et al.
# Submitted via: BonkEnc v1.0.8
# 
DISCID=670c770a
DTITLE=ショーロ・クラブ - Choro Club Ⅲ
DYEAR=1992
DGENRE=Choro
TTITLE0=春の夢
TTITLE1=ブレジェイロ (Brejeiro)
TTITLE2=アレン・ダス・ヌーヴェンス (Além des Nuvens)
TTITLE3=マラクタイア (Maracutaia)
TTITLE4=カラーズ #1 #2 (Colors #1,#2)
TTITLE5=雪柳
TTITLE6=カナル・セッチ (Canal 7)
TTITLE7=ヴァランディン (Varandim)
TTITLE8=アサニャード (Assanhado)
TTITLE9=マウア (Mauá)
EXTD=YEAR: 1992
EXTT0=
EXTT1=
EXTT2=
EXTT3=
EXTT4=
EXTT5=
EXTT6=
EXTT7=
EXTT8=
EXTT9=
PLAYORDER=
